HIERARCHY
ROOT Hips
{
  OFFSET 13.6774 106.653 -34.4427
  CHANNELS 6 Xposition Yposition Zposition Zrotation Xrotation Yrotation
  JOINT ToSpine
  {
    OFFSET -2.69724 7.43032 -0.144315
    CHANNELS 3 Zrotation Xrotation Yrotation
    JOINT Spine
    {
      OFFSET -0.0310711 10.7595 1.96963
      CHANNELS 3 Zrotation Xrotation Yrotation
      JOINT Spine1
      {
        OFFSET 19.9056 3.91189 0.764692
        CHANNELS 3 Zrotation Xrotation Yrotation
        JOINT Neck
        {
          OFFSET 25.9749 7.03908 -0.130764
          CHANNELS 3 Zrotation Xrotation Yrotation
          JOINT Head
          {
            OFFSET 9.52751 0.295786 -0.907742
            CHANNELS 3 Zrotation Xrotation Yrotation
            End Site
            {
              OFFSET 16.4037 0.713936 2.7358
            }
          }
        }
        JOINT LeftShoulder
        {
          OFFSET 17.7449 4.33886 11.7777
          CHANNELS 3 Zrotation Xrotation Yrotation
          JOINT LeftArm
          {
            OFFSET 0.911315 1.27913 9.80584
            CHANNELS 3 Zrotation Xrotation Yrotation
            JOINT LeftForeArm
            {
              OFFSET 28.6126 1.18197 -3.53199
              CHANNELS 3 Zrotation Xrotation Yrotation
              JOINT LeftHand
              {
                OFFSET 27.5088 0.0218783 0.327423
                CHANNELS 3 Zrotation Xrotation Yrotation
                End Site
                {
                  OFFSET 18.6038 -0.000155887 0.382096
                }
              }
            }
          }
        }
        JOINT RightShoulder
        {
          OFFSET 17.1009 2.89543 -12.2328
          CHANNELS 3 Zrotation Xrotation Yrotation
          JOINT RightArm
          {
            OFFSET 1.4228 0.178766 -10.211
            CHANNELS 3 Zrotation Xrotation Yrotation
            JOINT RightForeArm
            {
              OFFSET 28.733 1.87905 2.64907
              CHANNELS 3 Zrotation Xrotation Yrotation
              JOINT RightHand
              {
                OFFSET 27.4588 0.290562 -0.101845
                CHANNELS 3 Zrotation Xrotation Yrotation
                End Site
                {
                  OFFSET 17.8396 -0.255518 -0.000602873
                }
              }
            }
          }
        }
      }
    }
  }
  JOINT LeftUpLeg
  {
    OFFSET -5.61296 -2.22332 -10.2353
    CHANNELS 3 Zrotation Xrotation Yrotation
    JOINT LeftLeg
    {
      OFFSET 2.56703 -44.7417 -7.93097
      CHANNELS 3 Zrotation Xrotation Yrotation
      JOINT LeftFoot
      {
        OFFSET 3.16933 -46.5642 -3.96578
        CHANNELS 3 Zrotation Xrotation Yrotation
        JOINT LeftToeBase
        {
          OFFSET 0.346054 -6.02161 12.8035
          CHANNELS 3 Zrotation Xrotation Yrotation
          End Site
          {
            OFFSET 0.134235 -1.35082 5.13018
          }
        }
      }
    }
  }
  JOINT RightUpLeg
  {
    OFFSET -5.7928 -1.72406 10.6446
    CHANNELS 3 Zrotation Xrotation Yrotation
    JOINT RightLeg
    {
      OFFSET -2.57161 -44.7178 -7.85259
      CHANNELS 3 Zrotation Xrotation Yrotation
      JOINT RightFoot
      {
        OFFSET -3.10148 -46.5936 -4.03391
        CHANNELS 3 Zrotation Xrotation Yrotation
        JOINT RightToeBase
        {
          OFFSET -0.0828122 -6.13587 12.8035
          CHANNELS 3 Zrotation Xrotation Yrotation
          End Site
          {
            OFFSET -0.131328 -1.35082 5.13018
          }
        }
      }
    }
  }
}
MOTION
Frames: 14
Frame Time: 0.03333333333333333
0.0000 93.1000 0.0000 -62.9968 -38.2334 -161.1539 -70.9892 0.0471 87.9979 89.0803 75.7804 0.1507 4.3600 29.8920 -5.6947 -131.1514 21.7957 -163.2917 -152.3406 55.4279 -176.0096 0.3644 -13.6965 -21.4188 -128.0773 37.6261 -78.7477 19.0650 -16.6358 -127.4246 -0.2880 -0.3187 0.8846 -1.8583 8.4170 26.6812 -54.9608 -33.8899 153.1471 6.3178 1.9019 110.2934 0.1514 0.0791 -0.0211 -37.2368 16.2063 93.8922 -3.7595 42.3648 -9.9099 -2.0697 -6.3063 -0.7932 2.5899 -9.7446 6.6875 -52.7586 -14.4755 77.9527 -0.2729 30.0373 5.1024 -4.5507 -9.5899 0.8630 1.0869 -16.0748 -5.6692 
0.0000 93.1000 0.0000 -63.2598 -39.3502 -161.3488 -70.9906 -0.0053 88.0015 88.7204 75.7558 1.3334 4.6271 29.3833 -6.1389 -130.4126 21.4030 -165.0845 -150.4164 54.8995 -177.3037 0.2257 -13.5527 -21.4644 -128.2598 37.8475 -78.6555 19.8393 -16.4164 -126.7700 -0.2193 -0.3639 0.7558 -1.9361 8.3065 26.2480 -54.8205 -34.2673 153.3464 7.7175 2.1929 109.6993 0.2064 0.1872 0.0210 -38.7748 16.4311 92.8752 -2.6440 38.8210 -10.8482 -3.6905 -3.1929 -0.2756 2.3317 -9.5911 8.4610 -53.0501 -13.5797 77.6315 -0.1813 30.8130 5.7692 -3.1489 -9.8589 0.7190 1.3145 -16.0124 -5.6497 
0.0000 93.1000 0.0000 -63.0988 -40.0171 -160.9681 -70.9893 0.4784 88.0018 87.2784 75.3219 1.9443 5.3163 29.2147 -6.6477 -130.9291 21.0475 -164.8463 -151.3441 54.7613 -176.2592 0.0229 -13.5526 -21.0602 -129.0236 37.9379 -77.7458 19.6166 -15.9265 -125.9626 -0.2803 0.1033 0.5541 -2.0058 8.3588 26.2526 -54.4300 -34.8513 153.8089 7.5406 2.3136 109.0798 -0.2302 -0.3238 -0.4099 -39.2948 17.1889 93.3852 -3.3299 35.4482 -10.1917 -4.2698 -1.6553 -0.2449 1.2875 -7.6239 8.9684 -53.4435 -12.7647 77.7794 -0.0883 30.6369 8.0271 -2.6059 -9.6288 0.9918 1.2716 -16.2717 -4.9375 
0.0000 93.1000 0.0000 -62.0937 -41.2364 -160.1541 -70.9906 0.0329 88.0021 87.0811 75.0566 1.2013 5.0851 29.0577 -6.6835 -128.5028 20.7936 -166.6946 -145.4419 54.4526 -179.6079 0.4157 -13.8092 -21.1844 -128.8519 37.4597 -77.4764 19.2465 -15.8391 -125.7273 -0.3430 -0.3817 0.5907 -1.8176 7.9390 26.2632 -54.8499 -35.0055 152.8976 6.6643 1.8781 109.2393 0.0142 0.1467 0.1642 -39.5079 17.1190 94.4720 -3.5622 34.3904 -8.8827 -4.7200 -1.6365 -0.2889 0.1499 -5.5986 9.6524 -54.3723 -11.7690 78.1016 -0.0690 30.0875 6.7968 -2.2106 -12.2095 0.9855 0.9696 -13.8225 -4.1699 
0.0000 93.1000 0.0000 -61.8182 -43.1258 -158.8243 -70.9920 -0.0212 88.0009 88.1514 74.0218 0.4867 5.5946 28.4368 -6.2770 -129.9414 20.9040 -165.6968 -149.3612 54.1724 -177.5370 0.3745 -14.1761 -21.7351 -129.2047 36.3664 -77.0411 19.0677 -15.8448 -126.1667 -0.3063 -0.4518 0.4633 -1.9160 7.9346 25.8823 -54.7815 -36.0498 153.0728 6.9740 1.9514 108.8347 -0.0953 0.0983 0.1832 -39.4012 17.5948 97.3619 -2.7745 35.3485 -11.5243 -5.0688 -2.7015 -0.3019 -0.0477 -5.2825 10.8968 -54.7917 -10.9303 78.2959 -0.3092 30.3040 3.7169 -2.4663 -13.3911 1.2477 0.5587 -11.7472 -3.2803 
0.0000 93.1000 0.0000 -61.8261 -44.4426 -158.9172 -70.9916 -0.0325 88.0014 90.5609 73.9375 -1.4212 5.2631 28.4634 -5.7174 -130.3931 21.0795 -165.8694 -150.3351 54.2679 -176.2803 0.7272 -14.0498 -22.0747 -129.5466 35.8788 -76.6047 18.9012 -15.0758 -126.0903 -0.3256 -0.5654 0.5030 -1.7246 8.1407 25.5265 -55.1996 -35.7207 153.0763 6.6610 1.7540 109.0051 -0.0759 0.1385 0.4644 -39.5243 16.9560 99.0835 -3.2052 36.8334 -10.2706 -4.4644 -4.0245 -0.5792 -0.2057 -3.7955 8.2825 -54.8432 -10.3457 78.3879 0.5838 31.6237 3.3078 -1.9030 -14.6700 1.2365 1.1743 -9.9643 -4.0664 
0.0000 93.1000 0.0000 -62.0008 -44.8512 -159.9917 -70.9975 -0.1414 88.0001 90.9732 73.9664 -1.7059 4.8799 28.2650 -5.9119 -130.2343 21.2648 -165.9121 -151.1346 54.5423 -175.4283 -0.0610 -14.0758 -23.1459 -129.7859 34.6744 -75.6608 19.0521 -15.2270 -126.0284 -0.6707 -0.5952 0.5371 -2.0988 8.3913 25.0499 -55.1202 -36.0464 152.9858 7.0022 2.0093 109.0361 0.0499 0.1430 0.2842 -39.9781 16.2082 99.8177 -2.9643 36.3044 -8.2132 -4.0327 -3.0582 -0.1361 -0.0285 -3.7966 6.6345 -54.4778 -10.1461 79.3113 -0.2113 32.9776 1.8202 -2.8878 -15.5948 1.0292 1.1530 -9.8993 -4.8080 
0.0000 93.1000 0.0000 -62.8838 -44.3580 -160.7585 -70.9990 -0.0455 88.0014 90.1069 73.9888 -0.6368 5.1269 27.9472 -6.0384 -131.1131 21.2091 -164.5699 -153.1455 54.7128 -174.1508 -0.1429 -13.9330 -23.2603 -129.8217 34.1475 -74.6252 18.9970 -15.5739 -126.1756 -0.5653 -0.5688 0.4095 -2.1269 8.5717 24.9548 -54.2276 -36.1152 153.8716 7.1631 2.1234 109.0262 0.1162 0.0677 0.2049 -41.0070 15.9835 100.7883 -2.5361 34.2249 -5.6442 -3.3851 -1.5970 -0.0574 -0.5247 -2.3643 4.1740 -54.1036 -9.9241 79.9929 -0.3848 33.1700 1.9121 -2.9304 -15.9220 0.7638 1.0349 -9.1989 -4.8712 
0.0000 93.1000 0.0000 -62.9174 -43.9439 -160.9169 -70.9991 -0.1084 88.0005 89.6584 74.0602 0.7561 5.3153 28.2417 -6.5124 -130.5305 21.0161 -164.7670 -150.9859 54.3245 -175.1504 -0.3233 -14.0173 -23.3551 -130.2498 34.0974 -72.8136 19.9927 -16.0952 -125.7146 -0.3771 -0.6909 0.2134 -2.2220 9.0455 25.1089 -53.7837 -35.8715 153.3391 7.1148 1.8517 109.0971 0.1126 0.1014 0.1945 -41.9300 16.3246 101.7176 -1.1522 32.4452 -5.3030 -3.8408 -0.9765 0.1509 -0.1861 -1.3842 2.4296 -53.6540 -10.2743 80.3563 -0.3958 33.9254 2.7150 -2.3280 -16.0847 0.6976 1.1833 -9.5763 -5.9326 
0.0000 93.1000 0.0000 -64.0327 -43.9604 -161.8000 -70.9962 -0.0287 88.0012 90.1614 74.0963 1.3136 5.0624 28.3085 -6.3896 -131.0663 20.7663 -163.8427 -153.3022 54.0509 -174.1022 0.0413 -14.0486 -23.3873 -130.7191 34.0738 -71.6636 20.6916 -16.4050 -125.7089 -0.2271 -0.6906 0.0645 -1.9869 9.1483 25.3365 -53.1676 -36.2238 154.0306 7.2585 2.0810 109.1114 -0.0044 0.0451 0.1174 -43.1185 16.1823 101.1732 -1.9501 30.3046 -5.3966 -5.0298 -0.7422 0.1348 0.8669 -3.2372 0.1557 -53.0022 -10.3270 79.9943 0.0368 34.1448 2.9366 -3.8036 -16.0513 1.1173 1.5133 -10.2077 -6.2196 
0.0000 93.1000 0.0000 -64.0655 -43.6925 -163.0277 -70.9959 -0.0113 88.0022 89.8786 73.9462 1.3855 5.0021 28.0838 -6.3690 -130.9388 20.5998 -163.6154 -153.1440 54.0513 -172.9667 0.1936 -14.0073 -23.5820 -132.0359 33.2144 -70.7287 20.2577 -16.2034 -125.4321 -0.2181 -0.7433 0.1912 -1.9040 9.1882 24.9271 -53.1099 -35.9770 154.6453 7.5410 2.0026 109.0596 0.0018 0.0697 0.0659 -44.0635 15.2829 101.1020 -2.5883 29.3499 -4.4023 -4.4899 -0.5602 -0.0229 1.1356 -3.6170 -0.4879 -53.0567 -10.0217 81.0853 -0.0358 34.9066 2.5727 -3.9260 -16.2233 1.2254 1.2088 -9.6214 -7.5444 
0.0000 93.1000 0.0000 -63.9570 -44.1182 -164.1565 -70.9967 0.1156 88.0032 88.7585 74.0684 2.1042 4.9686 27.9369 -5.7779 -130.4653 20.4359 -162.5841 -154.5477 53.8941 -173.4430 0.1463 -14.1708 -24.0230 -132.2763 32.5893 -70.4985 19.4876 -15.8697 -125.6170 -0.1478 -0.6614 0.1183 -1.8912 9.0106 25.0155 -53.1162 -35.9388 153.9691 6.9213 1.8579 108.9946 -0.1543 -0.0083 -0.0147 -44.7097 14.9069 100.4545 -2.5116 28.6190 -3.1329 -4.4854 -0.0489 -0.1143 1.4408 -3.5066 -1.6639 -52.8336 -9.7562 82.0639 0.0476 35.4006 3.0276 -3.9594 -16.1998 1.3060 1.3915 -9.8812 -7.1210 
0.0000 93.1000 0.0000 -64.0826 -44.3950 -163.3626 -70.9989 -0.0220 88.0047 88.3656 73.9212 2.4383 4.7833 27.9565 -5.8111 -130.0184 20.4116 -163.9540 -153.6973 53.7776 -172.9935 -0.0477 -14.0449 -24.0876 -132.1313 32.8829 -70.5521 18.3812 -15.4209 -125.4262 -0.1332 -0.7815 0.1041 -2.0504 9.0720 24.9183 -52.2398 -36.1142 153.8642 6.9375 1.9472 108.7085 -0.0283 -0.0051 -0.0409 -45.0278 14.2145 100.0111 -2.0071 28.1713 -1.7876 -3.9054 0.8823 -0.0323 1.3366 -2.9256 -2.3838 -52.9123 -10.0049 81.6074 0.4461 35.4211 3.0036 -3.2001 -16.1428 1.0736 1.1075 -9.4343 -6.1647 
0.0000 93.1000 0.0000 -64.8204 -44.0236 -164.1759 -70.9980 0.2949 88.0059 87.9729 73.9968 3.5369 5.0199 27.9413 -5.9615 -129.5782 20.2495 -165.2933 -152.5047 54.0362 -174.4811 -0.0974 -14.0965 -24.1414 -132.1739 32.9758 -70.5685 19.2930 -15.4716 -125.1104 -0.1592 -0.5914 0.0260 -2.0714 9.0557 24.6740 -52.7004 -36.3281 153.4367 6.7487 2.0441 108.9664 -0.2857 -0.1875 -0.2378 -45.4072 14.6540 99.7070 -1.6791 27.1413 -1.7864 -3.8090 1.2722 -0.1252 1.0421 -2.5408 -1.4548 -52.8610 -10.1850 81.7836 0.1446 35.2295 1.9725 -3.6156 -16.0912 1.1225 0.9022 -9.3536 -6.0353 
